<svg width="21.094" height="19.922" viewBox="0 0 21.094 19.922" xmlns="http://www.w3.org/2000/svg"><g id="svgGroup" stroke-linecap="round" fill-rule="evenodd" font-size="9pt" stroke="#ffffff" stroke-width="1.5" fill="#ffffff" style="stroke:#ffffff;stroke-width:1.5;fill:#ffffff"><path d="M 0.664 19.424 L 0.273 19.922 L 0 3.447 L 1.494 3.223 L 1.748 1.055 L 7.373 0 L 7.813 2.119 L 18.926 0.176 L 18.916 2.705 L 18.535 2.783 L 18.535 0.635 L 7.5 2.578 L 7.061 0.449 L 2.1 1.396 L 1.846 3.545 L 0.4 3.779 L 0.664 19.424 Z M 0.273 19.922 L 18.994 15.42 L 21.094 2.178 L 8.105 4.502 L 7.441 6.973 L 2.236 7.842 L 0.273 19.922 Z M 2.588 8.174 L 0.674 19.434 L 18.643 15.078 L 20.615 2.656 L 8.418 4.844 L 7.754 7.324 L 2.588 8.174 Z" vector-effect="non-scaling-stroke"/></g></svg>