<svg width="22.734" height="19.922" viewBox="0 0 22.734 19.922" xmlns="http://www.w3.org/2000/svg"><g id="svgGroup" stroke-linecap="round" fill-rule="evenodd" font-size="9pt" stroke="#ffffff" stroke-width="1.5" fill="#ffffff" style="stroke:#ffffff;stroke-width:1.5;fill:#ffffff"><path d="M 18.008 15.615 L 0.205 19.922 L 0 3.398 L 1.035 3.223 L 1.289 1.055 L 6.924 0 L 7.363 2.119 L 17.539 0.449 L 17.529 5.527 L 17.148 5.605 L 17.148 0.928 L 7.051 2.578 L 6.611 0.449 L 1.641 1.396 L 1.387 3.545 L 0.4 3.73 L 0.586 19.434 L 5.117 9.902 L 10.205 9.053 L 11.064 6.484 L 22.734 4.541 L 18.008 15.615 Z M 5.391 10.254 L 1.074 19.316 L 17.734 15.293 L 22.08 5.059 L 11.377 6.826 L 10.518 9.404 L 5.391 10.254 Z" vector-effect="non-scaling-stroke"/></g></svg>